%TF.GenerationSoftware,KiCad,Pcbnew,(6.0.10)*%
%TF.CreationDate,2023-02-23T21:21:35-08:00*%
%TF.ProjectId,Ex 2,45782032-2e6b-4696-9361-645f70636258,rev?*%
%TF.SameCoordinates,Original*%
%TF.FileFunction,Legend,Top*%
%TF.FilePolarity,Positive*%
%FSLAX46Y46*%
G04 Gerber Fmt 4.6, Leading zero omitted, Abs format (unit mm)*
G04 Created by KiCad (PCBNEW (6.0.10)) date 2023-02-23 21:21:35*
%MOMM*%
%LPD*%
G01*
G04 APERTURE LIST*
%ADD10C,0.150000*%
%ADD11C,0.120000*%
G04 APERTURE END LIST*
D10*
%TO.C,J1*%
X164766666Y-95972380D02*
X164766666Y-96686666D01*
X164719047Y-96829523D01*
X164623809Y-96924761D01*
X164480952Y-96972380D01*
X164385714Y-96972380D01*
X165766666Y-96972380D02*
X165195238Y-96972380D01*
X165480952Y-96972380D02*
X165480952Y-95972380D01*
X165385714Y-96115238D01*
X165290476Y-96210476D01*
X165195238Y-96258095D01*
%TO.C,U1*%
X151638095Y-106132380D02*
X151638095Y-106941904D01*
X151685714Y-107037142D01*
X151733333Y-107084761D01*
X151828571Y-107132380D01*
X152019047Y-107132380D01*
X152114285Y-107084761D01*
X152161904Y-107037142D01*
X152209523Y-106941904D01*
X152209523Y-106132380D01*
X153209523Y-107132380D02*
X152638095Y-107132380D01*
X152923809Y-107132380D02*
X152923809Y-106132380D01*
X152828571Y-106275238D01*
X152733333Y-106370476D01*
X152638095Y-106418095D01*
%TO.C,D2*%
X147981904Y-104472380D02*
X147981904Y-103472380D01*
X148220000Y-103472380D01*
X148362857Y-103520000D01*
X148458095Y-103615238D01*
X148505714Y-103710476D01*
X148553333Y-103900952D01*
X148553333Y-104043809D01*
X148505714Y-104234285D01*
X148458095Y-104329523D01*
X148362857Y-104424761D01*
X148220000Y-104472380D01*
X147981904Y-104472380D01*
X148934285Y-103567619D02*
X148981904Y-103520000D01*
X149077142Y-103472380D01*
X149315238Y-103472380D01*
X149410476Y-103520000D01*
X149458095Y-103567619D01*
X149505714Y-103662857D01*
X149505714Y-103758095D01*
X149458095Y-103900952D01*
X148886666Y-104472380D01*
X149505714Y-104472380D01*
%TO.C,R2*%
X167202380Y-114466666D02*
X166726190Y-114800000D01*
X167202380Y-115038095D02*
X166202380Y-115038095D01*
X166202380Y-114657142D01*
X166250000Y-114561904D01*
X166297619Y-114514285D01*
X166392857Y-114466666D01*
X166535714Y-114466666D01*
X166630952Y-114514285D01*
X166678571Y-114561904D01*
X166726190Y-114657142D01*
X166726190Y-115038095D01*
X166297619Y-114085714D02*
X166250000Y-114038095D01*
X166202380Y-113942857D01*
X166202380Y-113704761D01*
X166250000Y-113609523D01*
X166297619Y-113561904D01*
X166392857Y-113514285D01*
X166488095Y-113514285D01*
X166630952Y-113561904D01*
X167202380Y-114133333D01*
X167202380Y-113514285D01*
%TO.C,R1*%
X167167380Y-109619602D02*
X166691190Y-109952936D01*
X167167380Y-110191031D02*
X166167380Y-110191031D01*
X166167380Y-109810078D01*
X166215000Y-109714840D01*
X166262619Y-109667221D01*
X166357857Y-109619602D01*
X166500714Y-109619602D01*
X166595952Y-109667221D01*
X166643571Y-109714840D01*
X166691190Y-109810078D01*
X166691190Y-110191031D01*
X167167380Y-108667221D02*
X167167380Y-109238650D01*
X167167380Y-108952936D02*
X166167380Y-108952936D01*
X166310238Y-109048174D01*
X166405476Y-109143412D01*
X166453095Y-109238650D01*
%TO.C,C2*%
X157313333Y-118877142D02*
X157265714Y-118924761D01*
X157122857Y-118972380D01*
X157027619Y-118972380D01*
X156884761Y-118924761D01*
X156789523Y-118829523D01*
X156741904Y-118734285D01*
X156694285Y-118543809D01*
X156694285Y-118400952D01*
X156741904Y-118210476D01*
X156789523Y-118115238D01*
X156884761Y-118020000D01*
X157027619Y-117972380D01*
X157122857Y-117972380D01*
X157265714Y-118020000D01*
X157313333Y-118067619D01*
X157694285Y-118067619D02*
X157741904Y-118020000D01*
X157837142Y-117972380D01*
X158075238Y-117972380D01*
X158170476Y-118020000D01*
X158218095Y-118067619D01*
X158265714Y-118162857D01*
X158265714Y-118258095D01*
X158218095Y-118400952D01*
X157646666Y-118972380D01*
X158265714Y-118972380D01*
%TO.C,D1*%
X149121904Y-115472380D02*
X149121904Y-114472380D01*
X149360000Y-114472380D01*
X149502857Y-114520000D01*
X149598095Y-114615238D01*
X149645714Y-114710476D01*
X149693333Y-114900952D01*
X149693333Y-115043809D01*
X149645714Y-115234285D01*
X149598095Y-115329523D01*
X149502857Y-115424761D01*
X149360000Y-115472380D01*
X149121904Y-115472380D01*
X150645714Y-115472380D02*
X150074285Y-115472380D01*
X150360000Y-115472380D02*
X150360000Y-114472380D01*
X150264761Y-114615238D01*
X150169523Y-114710476D01*
X150074285Y-114758095D01*
%TO.C,C1*%
X163707142Y-104306666D02*
X163754761Y-104354285D01*
X163802380Y-104497142D01*
X163802380Y-104592380D01*
X163754761Y-104735238D01*
X163659523Y-104830476D01*
X163564285Y-104878095D01*
X163373809Y-104925714D01*
X163230952Y-104925714D01*
X163040476Y-104878095D01*
X162945238Y-104830476D01*
X162850000Y-104735238D01*
X162802380Y-104592380D01*
X162802380Y-104497142D01*
X162850000Y-104354285D01*
X162897619Y-104306666D01*
X163802380Y-103354285D02*
X163802380Y-103925714D01*
X163802380Y-103640000D02*
X162802380Y-103640000D01*
X162945238Y-103735238D01*
X163040476Y-103830476D01*
X163088095Y-103925714D01*
%TO.C,R3*%
X147153333Y-110832380D02*
X146820000Y-110356190D01*
X146581904Y-110832380D02*
X146581904Y-109832380D01*
X146962857Y-109832380D01*
X147058095Y-109880000D01*
X147105714Y-109927619D01*
X147153333Y-110022857D01*
X147153333Y-110165714D01*
X147105714Y-110260952D01*
X147058095Y-110308571D01*
X146962857Y-110356190D01*
X146581904Y-110356190D01*
X147486666Y-109832380D02*
X148105714Y-109832380D01*
X147772380Y-110213333D01*
X147915238Y-110213333D01*
X148010476Y-110260952D01*
X148058095Y-110308571D01*
X148105714Y-110403809D01*
X148105714Y-110641904D01*
X148058095Y-110737142D01*
X148010476Y-110784761D01*
X147915238Y-110832380D01*
X147629523Y-110832380D01*
X147534285Y-110784761D01*
X147486666Y-110737142D01*
%TO.C,R4*%
X147153333Y-109052380D02*
X146820000Y-108576190D01*
X146581904Y-109052380D02*
X146581904Y-108052380D01*
X146962857Y-108052380D01*
X147058095Y-108100000D01*
X147105714Y-108147619D01*
X147153333Y-108242857D01*
X147153333Y-108385714D01*
X147105714Y-108480952D01*
X147058095Y-108528571D01*
X146962857Y-108576190D01*
X146581904Y-108576190D01*
X148010476Y-108385714D02*
X148010476Y-109052380D01*
X147772380Y-108004761D02*
X147534285Y-108719047D01*
X148153333Y-108719047D01*
D11*
%TO.C,J1*%
X152400000Y-97790000D02*
X152400000Y-105410000D01*
X152400000Y-105410000D02*
X162560000Y-105410000D01*
X162560000Y-97790000D02*
X152400000Y-97790000D01*
X152400000Y-99060000D02*
X162560000Y-99060000D01*
X162560000Y-105410000D02*
X162560000Y-97790000D01*
%TO.C,U1*%
X157480000Y-111780000D02*
X155530000Y-111780000D01*
X157480000Y-106660000D02*
X154030000Y-106660000D01*
X157480000Y-106660000D02*
X159430000Y-106660000D01*
X157480000Y-111780000D02*
X159430000Y-111780000D01*
%TO.C,D2*%
X151180000Y-101065000D02*
X147120000Y-101065000D01*
X151180000Y-103335000D02*
X151180000Y-101065000D01*
X147120000Y-103335000D02*
X151180000Y-103335000D01*
%TO.C,R2*%
X165835000Y-114072936D02*
X165835000Y-114527064D01*
X164365000Y-114072936D02*
X164365000Y-114527064D01*
%TO.C,R1*%
X164330000Y-109225872D02*
X164330000Y-109680000D01*
X165800000Y-109225872D02*
X165800000Y-109680000D01*
%TO.C,C2*%
X157741252Y-116105000D02*
X157218748Y-116105000D01*
X157741252Y-117575000D02*
X157218748Y-117575000D01*
%TO.C,D1*%
X147400000Y-117975000D02*
X151460000Y-117975000D01*
X147400000Y-115705000D02*
X147400000Y-117975000D01*
X151460000Y-115705000D02*
X147400000Y-115705000D01*
%TO.C,C1*%
X164165000Y-106625000D02*
X166035000Y-106625000D01*
X164165000Y-102540000D02*
X164165000Y-106625000D01*
X166035000Y-106625000D02*
X166035000Y-102540000D01*
%TO.C,R3*%
X147092936Y-111295000D02*
X147547064Y-111295000D01*
X147092936Y-112765000D02*
X147547064Y-112765000D01*
%TO.C,R4*%
X147547064Y-107685000D02*
X147092936Y-107685000D01*
X147547064Y-106215000D02*
X147092936Y-106215000D01*
%TD*%
M02*
