%TF.GenerationSoftware,KiCad,Pcbnew,(6.0.10)*%
%TF.CreationDate,2023-02-23T21:21:35-08:00*%
%TF.ProjectId,Ex 2,45782032-2e6b-4696-9361-645f70636258,rev?*%
%TF.SameCoordinates,Original*%
%TF.FileFunction,Copper,L1,Top*%
%TF.FilePolarity,Positive*%
%FSLAX46Y46*%
G04 Gerber Fmt 4.6, Leading zero omitted, Abs format (unit mm)*
G04 Created by KiCad (PCBNEW (6.0.10)) date 2023-02-23 21:21:35*
%MOMM*%
%LPD*%
G01*
G04 APERTURE LIST*
G04 Aperture macros list*
%AMRoundRect*
0 Rectangle with rounded corners*
0 $1 Rounding radius*
0 $2 $3 $4 $5 $6 $7 $8 $9 X,Y pos of 4 corners*
0 Add a 4 corners polygon primitive as box body*
4,1,4,$2,$3,$4,$5,$6,$7,$8,$9,$2,$3,0*
0 Add four circle primitives for the rounded corners*
1,1,$1+$1,$2,$3*
1,1,$1+$1,$4,$5*
1,1,$1+$1,$6,$7*
1,1,$1+$1,$8,$9*
0 Add four rect primitives between the rounded corners*
20,1,$1+$1,$2,$3,$4,$5,0*
20,1,$1+$1,$4,$5,$6,$7,0*
20,1,$1+$1,$6,$7,$8,$9,0*
20,1,$1+$1,$8,$9,$2,$3,0*%
G04 Aperture macros list end*
%TA.AperFunction,ComponentPad*%
%ADD10R,3.000000X3.000000*%
%TD*%
%TA.AperFunction,ComponentPad*%
%ADD11C,3.000000*%
%TD*%
%TA.AperFunction,SMDPad,CuDef*%
%ADD12RoundRect,0.150000X-0.825000X-0.150000X0.825000X-0.150000X0.825000X0.150000X-0.825000X0.150000X0*%
%TD*%
%TA.AperFunction,SMDPad,CuDef*%
%ADD13R,2.290000X3.000000*%
%TD*%
%TA.AperFunction,SMDPad,CuDef*%
%ADD14RoundRect,0.250001X0.462499X0.624999X-0.462499X0.624999X-0.462499X-0.624999X0.462499X-0.624999X0*%
%TD*%
%TA.AperFunction,SMDPad,CuDef*%
%ADD15RoundRect,0.250000X-0.450000X0.350000X-0.450000X-0.350000X0.450000X-0.350000X0.450000X0.350000X0*%
%TD*%
%TA.AperFunction,SMDPad,CuDef*%
%ADD16RoundRect,0.250000X0.337500X0.475000X-0.337500X0.475000X-0.337500X-0.475000X0.337500X-0.475000X0*%
%TD*%
%TA.AperFunction,SMDPad,CuDef*%
%ADD17RoundRect,0.250001X-0.462499X-0.624999X0.462499X-0.624999X0.462499X0.624999X-0.462499X0.624999X0*%
%TD*%
%TA.AperFunction,SMDPad,CuDef*%
%ADD18RoundRect,0.250000X0.425000X-0.537500X0.425000X0.537500X-0.425000X0.537500X-0.425000X-0.537500X0*%
%TD*%
%TA.AperFunction,SMDPad,CuDef*%
%ADD19RoundRect,0.250000X-0.350000X-0.450000X0.350000X-0.450000X0.350000X0.450000X-0.350000X0.450000X0*%
%TD*%
%TA.AperFunction,SMDPad,CuDef*%
%ADD20RoundRect,0.250000X0.350000X0.450000X-0.350000X0.450000X-0.350000X-0.450000X0.350000X-0.450000X0*%
%TD*%
%TA.AperFunction,ViaPad*%
%ADD21C,0.800000*%
%TD*%
%TA.AperFunction,Conductor*%
%ADD22C,0.250000*%
%TD*%
G04 APERTURE END LIST*
D10*
%TO.P,J1,1,Pin_1*%
%TO.N,+9V*%
X160020000Y-101600000D03*
D11*
%TO.P,J1,2,Pin_2*%
%TO.N,GND*%
X154940000Y-101600000D03*
%TD*%
D12*
%TO.P,U1,1,GND*%
%TO.N,GND*%
X155005000Y-107315000D03*
%TO.P,U1,2,TR*%
%TO.N,/pin_2*%
X155005000Y-108585000D03*
%TO.P,U1,3,Q*%
%TO.N,/pin_3*%
X155005000Y-109855000D03*
%TO.P,U1,4,R*%
%TO.N,+9V*%
X155005000Y-111125000D03*
%TO.P,U1,5,CV*%
%TO.N,Net-(C2-Pad1)*%
X159955000Y-111125000D03*
%TO.P,U1,6,THR*%
%TO.N,/pin_2*%
X159955000Y-109855000D03*
%TO.P,U1,7,DIS*%
%TO.N,/pin_7*%
X159955000Y-108585000D03*
%TO.P,U1,8,VCC*%
%TO.N,+9V*%
X159955000Y-107315000D03*
D13*
%TO.P,U1,9*%
%TO.N,N/C*%
X157480000Y-109220000D03*
%TD*%
D14*
%TO.P,D2,1,K*%
%TO.N,GND*%
X150207500Y-102200000D03*
%TO.P,D2,2,A*%
%TO.N,Net-(D2-Pad2)*%
X147232500Y-102200000D03*
%TD*%
D15*
%TO.P,R2,1*%
%TO.N,/pin_7*%
X165100000Y-113300000D03*
%TO.P,R2,2*%
%TO.N,/pin_2*%
X165100000Y-115300000D03*
%TD*%
%TO.P,R1,1*%
%TO.N,+9V*%
X165065000Y-108452936D03*
%TO.P,R1,2*%
%TO.N,/pin_7*%
X165065000Y-110452936D03*
%TD*%
D16*
%TO.P,C2,1*%
%TO.N,Net-(C2-Pad1)*%
X158517500Y-116840000D03*
%TO.P,C2,2*%
%TO.N,GND*%
X156442500Y-116840000D03*
%TD*%
D17*
%TO.P,D1,1,K*%
%TO.N,Net-(D1-Pad1)*%
X148372500Y-116840000D03*
%TO.P,D1,2,A*%
%TO.N,+9V*%
X151347500Y-116840000D03*
%TD*%
D18*
%TO.P,C1,1*%
%TO.N,/pin_2*%
X165100000Y-105577500D03*
%TO.P,C1,2*%
%TO.N,GND*%
X165100000Y-102702500D03*
%TD*%
D19*
%TO.P,R3,1*%
%TO.N,Net-(D1-Pad1)*%
X146320000Y-112030000D03*
%TO.P,R3,2*%
%TO.N,/pin_3*%
X148320000Y-112030000D03*
%TD*%
D20*
%TO.P,R4,1*%
%TO.N,/pin_3*%
X148320000Y-106950000D03*
%TO.P,R4,2*%
%TO.N,Net-(D2-Pad2)*%
X146320000Y-106950000D03*
%TD*%
D21*
%TO.N,/pin_2*%
X162560000Y-111760000D03*
X149860000Y-106680000D03*
%TO.N,+9V*%
X162560000Y-106680000D03*
X152400000Y-111760000D03*
%TD*%
D22*
%TO.N,/pin_2*%
X165100000Y-115300000D02*
X162560000Y-112760000D01*
X166640000Y-116840000D02*
X167640000Y-116840000D01*
X162560000Y-112760000D02*
X162560000Y-111760000D01*
X151765000Y-108585000D02*
X149860000Y-106680000D01*
X167640000Y-106680000D02*
X166537500Y-105577500D01*
X160655000Y-109855000D02*
X159955000Y-109855000D01*
X167640000Y-116840000D02*
X167640000Y-106680000D01*
X162560000Y-111760000D02*
X160655000Y-109855000D01*
X165100000Y-115300000D02*
X166640000Y-116840000D01*
X155005000Y-108585000D02*
X151765000Y-108585000D01*
X166537500Y-105577500D02*
X165100000Y-105577500D01*
%TO.N,GND*%
X154940000Y-119380000D02*
X156442500Y-117877500D01*
X150207500Y-99407500D02*
X149860000Y-99060000D01*
X150207500Y-102200000D02*
X150207500Y-99407500D01*
X154940000Y-101600000D02*
X154940000Y-107250000D01*
X144780000Y-99060000D02*
X144780000Y-119380000D01*
X154940000Y-107250000D02*
X155005000Y-107315000D01*
X156442500Y-117877500D02*
X156442500Y-116840000D01*
X165100000Y-99060000D02*
X165100000Y-102702500D01*
X154940000Y-101600000D02*
X157480000Y-99060000D01*
X144780000Y-119380000D02*
X154940000Y-119380000D01*
X150207500Y-102200000D02*
X150807500Y-101600000D01*
X157480000Y-99060000D02*
X165100000Y-99060000D01*
X150807500Y-101600000D02*
X154940000Y-101600000D01*
X149860000Y-99060000D02*
X144780000Y-99060000D01*
%TO.N,Net-(C2-Pad1)*%
X158517500Y-112562500D02*
X159955000Y-111125000D01*
X158517500Y-116840000D02*
X158517500Y-112562500D01*
%TO.N,Net-(D1-Pad1)*%
X147320000Y-113030000D02*
X147320000Y-116840000D01*
X146320000Y-112030000D02*
X147320000Y-113030000D01*
X147320000Y-116840000D02*
X148372500Y-116840000D01*
%TO.N,+9V*%
X162560000Y-106680000D02*
X160590000Y-106680000D01*
X165065000Y-108452936D02*
X164332936Y-108452936D01*
X160590000Y-106680000D02*
X159955000Y-107315000D01*
X152400000Y-111760000D02*
X153035000Y-111125000D01*
X152400000Y-115787500D02*
X152400000Y-111760000D01*
X160590000Y-106680000D02*
X160020000Y-106110000D01*
X160020000Y-106110000D02*
X160020000Y-101600000D01*
X151347500Y-116840000D02*
X152400000Y-115787500D01*
X164332936Y-108452936D02*
X162560000Y-106680000D01*
X153035000Y-111125000D02*
X155005000Y-111125000D01*
%TO.N,Net-(D2-Pad2)*%
X147232500Y-106037500D02*
X146320000Y-106950000D01*
X147232500Y-102200000D02*
X147232500Y-106037500D01*
%TO.N,/pin_7*%
X165065000Y-113265000D02*
X165100000Y-113300000D01*
X165065000Y-110452936D02*
X163197064Y-108585000D01*
X165065000Y-110452936D02*
X165065000Y-113265000D01*
X163197064Y-108585000D02*
X159955000Y-108585000D01*
%TO.N,/pin_3*%
X148320000Y-110220000D02*
X148685000Y-109855000D01*
X148320000Y-110220000D02*
X148320000Y-112030000D01*
X148320000Y-106950000D02*
X148320000Y-110220000D01*
X148685000Y-109855000D02*
X155005000Y-109855000D01*
%TD*%
M02*
